<svg xmlns="http://www.w3.org/2000/svg" xmlns:xlink="http://www.w3.org/1999/xlink" width="210" height="380" viewBox="0 0 210 380">
  <defs>
    <clipPath id="clip-kitchen-sink-panel">
      <rect width="210" height="380"/>
    </clipPath>
  </defs>
  <g id="kitchen-sink-panel" clip-path="url(#clip-kitchen-sink-panel)">
    <rect width="210" height="380" fill="#e6e6e6"/>
      <g id="Component_9_1" data-name="Component 9 – 1" transform="translate(171 310)">
      <rect id="Rectangle_9" data-name="Rectangle 9" width="33" height="50" rx="3"/>
      <path id="Path_29" data-name="Path 29" d="M8.812-4.655A6.157,6.157,0,0,1,8.319-2.1,3.728,3.728,0,0,1,6.925-.437,3.837,3.837,0,0,1,4.819.137,3.8,3.8,0,0,1,2.734-.441,3.817,3.817,0,0,1,1.323-2.088,5.908,5.908,0,0,1,.807-4.566v-.718a6.084,6.084,0,0,1,.5-2.536A3.8,3.8,0,0,1,2.717-9.505a3.788,3.788,0,0,1,2.088-.584,3.858,3.858,0,0,1,2.109.578,3.721,3.721,0,0,1,1.4,1.675,6.187,6.187,0,0,1,.492,2.553ZM7.506-5.3a4.463,4.463,0,0,0-.711-2.717,2.345,2.345,0,0,0-1.989-.947,2.32,2.32,0,0,0-1.958.947,4.371,4.371,0,0,0-.735,2.628v.731a4.469,4.469,0,0,0,.721,2.7,2.329,2.329,0,0,0,1.986.981A2.32,2.32,0,0,0,6.788-1.9,4.444,4.444,0,0,0,7.506-4.56ZM15.148-.731a2.686,2.686,0,0,1-2.167.868,2.3,2.3,0,0,1-1.8-.687,2.974,2.974,0,0,1-.625-2.034V-7.4h1.265v4.778q0,1.682,1.367,1.682a1.893,1.893,0,0,0,1.928-1.08V-7.4h1.265V0h-1.2Zm4.867-8.456V-7.4H21.4v.978H20.016v4.593a1.027,1.027,0,0,0,.185.667.777.777,0,0,0,.629.222,3.062,3.062,0,0,0,.6-.082V0a3.688,3.688,0,0,1-.971.136,1.575,1.575,0,0,1-1.278-.513,2.2,2.2,0,0,1-.431-1.456V-6.419H17.4V-7.4h1.347V-9.187Z" transform="translate(4 13)" fill="#fff"/>
    </g>
    <path id="Path_20" data-name="Path 20" d="M4.45-1.743l2.844-8.21H8.729L5.038,0H3.876L.191-9.953H1.62Zm5.667,2.6H9.03L13.187-9.953h1.08Zm13.371-5.51A6.157,6.157,0,0,1,23-2.1,3.728,3.728,0,0,1,21.6-.437,3.837,3.837,0,0,1,19.5.137a3.8,3.8,0,0,1-2.085-.578A3.817,3.817,0,0,1,16-2.088a5.908,5.908,0,0,1-.516-2.478v-.718a6.084,6.084,0,0,1,.5-2.536,3.8,3.8,0,0,1,1.412-1.685,3.788,3.788,0,0,1,2.088-.584,3.858,3.858,0,0,1,2.109.578A3.721,3.721,0,0,1,23-7.837a6.187,6.187,0,0,1,.492,2.553ZM22.183-5.3a4.463,4.463,0,0,0-.711-2.717,2.345,2.345,0,0,0-1.989-.947,2.32,2.32,0,0,0-1.958.947,4.371,4.371,0,0,0-.735,2.628v.731a4.469,4.469,0,0,0,.721,2.7A2.329,2.329,0,0,0,19.5-.978,2.32,2.32,0,0,0,21.465-1.9a4.444,4.444,0,0,0,.718-2.656ZM28.226-.9a1.822,1.822,0,0,0,1.183-.41,1.443,1.443,0,0,0,.561-1.025h1.2a2.293,2.293,0,0,1-.437,1.21,2.881,2.881,0,0,1-1.077.916,3.107,3.107,0,0,1-1.425.342,3.047,3.047,0,0,1-2.4-1.008,4.016,4.016,0,0,1-.892-2.758v-.212a4.453,4.453,0,0,1,.4-1.921,3.02,3.02,0,0,1,1.138-1.306,3.233,3.233,0,0,1,1.753-.465,2.966,2.966,0,0,1,2.068.745,2.663,2.663,0,0,1,.878,1.935h-1.2a1.743,1.743,0,0,0-.543-1.179,1.691,1.691,0,0,0-1.207-.461,1.77,1.77,0,0,0-1.494.694,3.259,3.259,0,0,0-.53,2.006v.239a3.194,3.194,0,0,0,.526,1.969A1.779,1.779,0,0,0,28.226-.9ZM34.3-9.187V-7.4h1.381v.978H34.3v4.593a1.027,1.027,0,0,0,.185.667.777.777,0,0,0,.629.222,3.062,3.062,0,0,0,.6-.082V0a3.688,3.688,0,0,1-.971.136,1.575,1.575,0,0,1-1.278-.513,2.2,2.2,0,0,1-.431-1.456V-6.419H31.691V-7.4h1.347V-9.187Z" transform="translate(6 321)"/>
    <path id="Path_21" data-name="Path 21" d="M6.645-4.4H2.468V0H1.155V-9.953H7.321V-8.88H2.468v3.411H6.645Zm3.944-5.558,3.254,8.121L17.1-9.953h1.7V0H17.486V-3.876l.123-4.184L14.342,0h-1L10.076-8.039l.13,4.163V0H8.894V-9.953Z" transform="translate(54 270)"/>
    <path id="Path_22" data-name="Path 22" d="M2.475-1.073H7.191V0H1.155V-9.953H2.475ZM14.178-4.4H10V0H8.688V-9.953h6.166V-8.88H10v3.411h4.177Zm3.944-5.558,3.254,8.121L24.63-9.953h1.7V0H25.02V-3.876l.123-4.184L21.875,0h-1L17.609-8.039l.13,4.163V0H16.427V-9.953Z" transform="translate(91 321)"/>
    <path id="Path_23" data-name="Path 23" d="M6.645-4.4H2.468V0H1.155V-9.953H7.321V-8.88H2.468v3.411H6.645ZM10.069,0H8.8V-7.4h1.265ZM8.7-9.358a.755.755,0,0,1,.188-.52.706.706,0,0,1,.557-.212.717.717,0,0,1,.561.212.747.747,0,0,1,.191.52.722.722,0,0,1-.191.513.73.73,0,0,1-.561.205.718.718,0,0,1-.557-.205A.73.73,0,0,1,8.7-9.358ZM13.289-7.4l.041.93a2.7,2.7,0,0,1,2.215-1.066q2.345,0,2.365,2.646V0H16.646V-4.895a1.7,1.7,0,0,0-.366-1.183,1.466,1.466,0,0,0-1.118-.383,1.825,1.825,0,0,0-1.08.328,2.228,2.228,0,0,0-.725.861V0H12.093V-7.4Zm9.6,7.533a3.232,3.232,0,0,1-2.447-.988A3.666,3.666,0,0,1,19.5-3.493v-.232a4.438,4.438,0,0,1,.42-1.965,3.28,3.28,0,0,1,1.176-1.354,2.956,2.956,0,0,1,1.637-.489,2.77,2.77,0,0,1,2.242.95,4.114,4.114,0,0,1,.8,2.721v.526H20.761A2.629,2.629,0,0,0,21.4-1.569,2.009,2.009,0,0,0,22.955-.9a2.2,2.2,0,0,0,1.135-.273,2.851,2.851,0,0,0,.813-.725l.772.6A3.106,3.106,0,0,1,22.887.137Zm-.157-6.631a1.687,1.687,0,0,0-1.285.557A2.708,2.708,0,0,0,20.8-4.375h3.705v-.1a2.409,2.409,0,0,0-.52-1.494A1.588,1.588,0,0,0,22.729-6.494Z" transform="translate(117 50)"/>
    <path id="Path_24" data-name="Path 24" d="M3.3-3.138l.191,1.313.28-1.183L5.742-9.953H6.85L8.771-3.008l.273,1.2.212-1.34L10.8-9.953H12.12L9.707,0h-1.2L6.46-7.253,6.3-8.012l-.157.759L4.02,0h-1.2L.417-9.953H1.729ZM17.719,0a2.657,2.657,0,0,1-.178-.779,2.822,2.822,0,0,1-2.105.916,2.611,2.611,0,0,1-1.794-.619,2,2,0,0,1-.7-1.569,2.091,2.091,0,0,1,.878-1.794,4.142,4.142,0,0,1,2.471-.639h1.23v-.581a1.42,1.42,0,0,0-.4-1.056,1.593,1.593,0,0,0-1.169-.393,1.844,1.844,0,0,0-1.135.342,1.007,1.007,0,0,0-.458.827H13.091a1.745,1.745,0,0,1,.393-1.07,2.683,2.683,0,0,1,1.066-.817,3.588,3.588,0,0,1,1.48-.3,2.924,2.924,0,0,1,2,.639,2.306,2.306,0,0,1,.752,1.76v3.4a4.162,4.162,0,0,0,.26,1.62V0Zm-2.1-.964a2.223,2.223,0,0,0,1.128-.308,1.861,1.861,0,0,0,.772-.8V-3.589h-.991q-2.324,0-2.324,1.36a1.151,1.151,0,0,0,.4.93A1.524,1.524,0,0,0,15.62-.964Zm7.485-.752L24.938-7.4h1.292L23.577,0h-.964l-2.68-7.4h1.292ZM30.427.137a3.232,3.232,0,0,1-2.447-.988,3.666,3.666,0,0,1-.943-2.642v-.232a4.438,4.438,0,0,1,.42-1.965,3.28,3.28,0,0,1,1.176-1.354,2.956,2.956,0,0,1,1.637-.489,2.77,2.77,0,0,1,2.242.95,4.114,4.114,0,0,1,.8,2.721v.526H28.3a2.629,2.629,0,0,0,.639,1.767A2.009,2.009,0,0,0,30.5-.9a2.2,2.2,0,0,0,1.135-.273,2.851,2.851,0,0,0,.813-.725l.772.6A3.106,3.106,0,0,1,30.427.137ZM30.27-6.494a1.687,1.687,0,0,0-1.285.557,2.708,2.708,0,0,0-.643,1.562h3.705v-.1a2.409,2.409,0,0,0-.52-1.494A1.588,1.588,0,0,0,30.27-6.494Z" transform="translate(164 50)"/>
    <path id="Path_25" data-name="Path 25" d="M1.155,0V-9.953h2.81a4.523,4.523,0,0,1,2.3.574A3.884,3.884,0,0,1,7.8-7.745a5.318,5.318,0,0,1,.55,2.434v.636A5.336,5.336,0,0,1,7.81-2.208,3.823,3.823,0,0,1,6.258-.581,4.811,4.811,0,0,1,3.91,0ZM2.468-8.88v7.807H3.849A3,3,0,0,0,6.21-2.017a3.9,3.9,0,0,0,.844-2.689v-.582a3.963,3.963,0,0,0-.8-2.637A2.834,2.834,0,0,0,4-8.88ZM13.207.137A3.232,3.232,0,0,1,10.76-.851a3.666,3.666,0,0,1-.943-2.642v-.232a4.438,4.438,0,0,1,.42-1.965,3.28,3.28,0,0,1,1.176-1.354,2.956,2.956,0,0,1,1.637-.489,2.77,2.77,0,0,1,2.242.95,4.114,4.114,0,0,1,.8,2.721v.526H11.081a2.629,2.629,0,0,0,.639,1.767A2.009,2.009,0,0,0,13.275-.9a2.2,2.2,0,0,0,1.135-.273,2.851,2.851,0,0,0,.813-.725l.772.6A3.106,3.106,0,0,1,13.207.137ZM13.05-6.494a1.687,1.687,0,0,0-1.285.557,2.708,2.708,0,0,0-.643,1.562h3.705v-.1a2.409,2.409,0,0,0-.52-1.494A1.588,1.588,0,0,0,13.05-6.494ZM23.8-3.616A4.429,4.429,0,0,1,23.03-.9,2.476,2.476,0,0,1,20.938.137a2.713,2.713,0,0,1-2.119-.854V2.844H17.555V-7.4H18.71l.062.82a2.605,2.605,0,0,1,2.146-.957,2.522,2.522,0,0,1,2.109,1,4.477,4.477,0,0,1,.776,2.8ZM22.538-3.76A3.268,3.268,0,0,0,22-5.735a1.718,1.718,0,0,0-1.463-.725,1.859,1.859,0,0,0-1.723,1.019v3.534A1.863,1.863,0,0,0,20.556-.9,1.71,1.71,0,0,0,22-1.617,3.567,3.567,0,0,0,22.538-3.76Zm4.587-5.428V-7.4h1.381v.978H27.125v4.593a1.027,1.027,0,0,0,.185.667.777.777,0,0,0,.629.222,3.062,3.062,0,0,0,.6-.082V0a3.688,3.688,0,0,1-.971.136,1.575,1.575,0,0,1-1.278-.513,2.2,2.2,0,0,1-.431-1.456V-6.419H24.514V-7.4H25.86V-9.187ZM31.247-6.5a2.689,2.689,0,0,1,2.188-1.032q2.345,0,2.365,2.646V0H34.535V-4.895a1.7,1.7,0,0,0-.366-1.183,1.466,1.466,0,0,0-1.118-.383,1.825,1.825,0,0,0-1.08.328,2.228,2.228,0,0,0-.725.861V0H29.982V-10.5h1.265Z" transform="translate(61 114)"/>
    <path id="Path_26" data-name="Path 26" d="M2.475-1.073H7.191V0H1.155V-9.953H2.475ZM11.56.137A3.232,3.232,0,0,1,9.112-.851a3.666,3.666,0,0,1-.943-2.642v-.232a4.438,4.438,0,0,1,.42-1.965A3.28,3.28,0,0,1,9.765-7.044,2.956,2.956,0,0,1,11.4-7.533a2.77,2.77,0,0,1,2.242.95,4.114,4.114,0,0,1,.8,2.721v.526H9.434a2.629,2.629,0,0,0,.639,1.767A2.009,2.009,0,0,0,11.628-.9a2.2,2.2,0,0,0,1.135-.273,2.851,2.851,0,0,0,.813-.725l.772.6A3.106,3.106,0,0,1,11.56.137ZM11.4-6.494a1.687,1.687,0,0,0-1.285.557,2.708,2.708,0,0,0-.643,1.562H13.18v-.1a2.409,2.409,0,0,0-.52-1.494A1.588,1.588,0,0,0,11.4-6.494Zm6.856,4.778L20.091-7.4h1.292L18.73,0h-.964l-2.68-7.4h1.292ZM25.58.137a3.232,3.232,0,0,1-2.447-.988,3.666,3.666,0,0,1-.943-2.642v-.232a4.438,4.438,0,0,1,.42-1.965,3.28,3.28,0,0,1,1.176-1.354,2.956,2.956,0,0,1,1.637-.489,2.77,2.77,0,0,1,2.242.95,4.114,4.114,0,0,1,.8,2.721v.526H23.454a2.629,2.629,0,0,0,.639,1.767A2.009,2.009,0,0,0,25.648-.9a2.2,2.2,0,0,0,1.135-.273,2.851,2.851,0,0,0,.813-.725l.772.6A3.106,3.106,0,0,1,25.58.137Zm-.157-6.631a1.687,1.687,0,0,0-1.285.557A2.708,2.708,0,0,0,23.5-4.375H27.2v-.1a2.409,2.409,0,0,0-.52-1.494A1.588,1.588,0,0,0,25.423-6.494ZM31.3,0H30.037V-10.5H31.3Z" transform="translate(10 114)"/>
    <path id="Path_27" data-name="Path 27" d="M6.645-4.4H2.468V0H1.155V-9.953H7.321V-8.88H2.468v3.411H6.645Zm1.6.636A4.333,4.333,0,0,1,9.051-6.5a2.551,2.551,0,0,1,2.112-1.036,2.565,2.565,0,0,1,2.058.889V-10.5h1.265V0H13.323l-.062-.793a2.575,2.575,0,0,1-2.112.93,2.526,2.526,0,0,1-2.1-1.053,4.382,4.382,0,0,1-.81-2.748Zm1.265.144a3.281,3.281,0,0,0,.52,1.969,1.68,1.68,0,0,0,1.436.711,1.845,1.845,0,0,0,1.757-1.08v-3.4A1.859,1.859,0,0,0,11.478-6.46a1.687,1.687,0,0,0-1.449.718A3.612,3.612,0,0,0,9.509-3.616Zm13.2,0A4.4,4.4,0,0,1,21.93-.892,2.49,2.49,0,0,1,19.838.137a2.578,2.578,0,0,1-2.167-.991L17.609,0H16.447V-10.5h1.265v3.917a2.564,2.564,0,0,1,2.112-.95A2.505,2.505,0,0,1,21.94-6.515a4.53,4.53,0,0,1,.769,2.789ZM21.444-3.76a3.417,3.417,0,0,0-.5-2,1.652,1.652,0,0,0-1.436-.7,1.857,1.857,0,0,0-1.8,1.162v3.2A1.909,1.909,0,0,0,19.523-.937a1.643,1.643,0,0,0,1.415-.7A3.634,3.634,0,0,0,21.444-3.76Zm4.922.335-.793.827V0H24.309V-10.5h1.265v6.351l.677-.813,2.3-2.434h1.538l-2.878,3.09L30.427,0H28.943Z" transform="translate(116 114)"/>
    <path id="Path_28" data-name="Path 28" d="M0,0V16" transform="translate(64 305.5)" fill="none" stroke="#707070" stroke-linecap="round" stroke-width="3"/>
  </g>
</svg>
